# xmcd CD database file
#
# Track frame offsets:
#	150
#	23897
#	41527
#	49026
#	72773
#
# Disc length: 1201 seconds
#
# Revision: 2
# Processed by: cddbd v1.5.2PL0 Copyright (c) Steve Scherf et al.
# Submitted via: CDex 1.70beta2
#
DISCID=3904af05
DTITLE=Sonar Pocket - 片想い。～リナリア～／スタートライン!
DYEAR=2013
DGENRE=J-Pop
TTITLE0=片想い。～リナリア～
TTITLE1=スタートライン!
TTITLE2=スタートライン! (TV size)
TTITLE3=片想い。～リナリア～ (instrumental)
TTITLE4=スタートライン! (instrumental)
EXTD=YEAR: 2013
EXTT0=
EXTT1=
EXTT2=
EXTT3=
EXTT4=
PLAYORDER=
